<svg width="600" height="229" viewBox="0 0 600 229" fill="none" xmlns="http://www.w3.org/2000/svg">
<g clip-path="url(#clip0_269_168)">
<rect width="600" height="229" fill="#0A1F4D"/>
<circle cx="170.085" cy="229.085" r="387.914" fill="#266FFF" fill-opacity="0.09"/>
<circle cx="170.085" cy="229.085" r="387.414" stroke="white" stroke-opacity="0.08"/>
<ellipse cx="169.826" cy="228.826" rx="326.378" ry="326.897" fill="#266FFF" fill-opacity="0.09"/>
<path d="M495.703 228.826C495.703 409.091 349.802 555.223 169.826 555.223C-10.151 555.223 -156.052 409.091 -156.052 228.826C-156.052 48.5609 -10.151 -97.5713 169.826 -97.5713C349.802 -97.5713 495.703 48.5609 495.703 228.826Z" stroke="white" stroke-opacity="0.08"/>
<ellipse cx="169.566" cy="228.826" rx="263.803" ry="263.543" fill="#266FFF" fill-opacity="0.09"/>
<path d="M432.869 228.826C432.869 374.1 314.984 491.869 169.566 491.869C24.1475 491.869 -93.7366 374.1 -93.7366 228.826C-93.7366 83.5515 24.1475 -34.2173 169.566 -34.2173C314.984 -34.2173 432.869 83.5515 432.869 228.826Z" stroke="white" stroke-opacity="0.08"/>
<ellipse cx="169.826" cy="228.826" rx="206.42" ry="206.94" fill="#266FFF" fill-opacity="0.09"/>
<path d="M375.746 228.826C375.746 342.84 283.551 435.265 169.826 435.265C56.1004 435.265 -36.0945 342.84 -36.0945 228.826C-36.0945 114.811 56.1004 22.3862 169.826 22.3862C283.551 22.3862 375.746 114.811 375.746 228.826Z" stroke="white" stroke-opacity="0.08"/>
<ellipse cx="169.566" cy="228.826" rx="158.905" ry="159.164" fill="#266FFF" fill-opacity="0.09"/>
<path d="M327.97 228.826C327.97 316.455 257.049 387.49 169.566 387.49C82.0819 387.49 11.1609 316.455 11.1609 228.826C11.1609 141.197 82.0819 70.1616 169.566 70.1616C257.049 70.1616 327.97 141.197 327.97 228.826Z" stroke="white" stroke-opacity="0.08"/>
</g>
<defs>
<clipPath id="clip0_269_168">
<rect width="600" height="229" fill="white"/>
</clipPath>
</defs>
</svg>
